<svg width="18" height="18" viewBox="0 0 18 18" fill="none" xmlns="http://www.w3.org/2000/svg">
<path d="M12.9373 2.25019H5.06244C4.76407 2.25019 4.47793 2.36872 4.26695 2.57969C4.05598 2.79067 3.93745 3.07681 3.93745 3.37518V15.75C3.9375 15.8504 3.96441 15.949 4.0154 16.0354C4.06638 16.1219 4.13958 16.1932 4.22739 16.2418C4.3152 16.2904 4.41443 16.3147 4.51478 16.312C4.61513 16.3094 4.71294 16.2799 4.79807 16.2267L8.99989 13.6006L13.2024 16.2267C13.2875 16.2798 13.3853 16.3091 13.4855 16.3116C13.5858 16.3142 13.6849 16.2899 13.7726 16.2413C13.8603 16.1926 13.9334 16.1215 13.9843 16.0351C14.0353 15.9487 14.0622 15.8503 14.0623 15.75V3.37518C14.0623 3.07681 13.9438 2.79067 13.7328 2.57969C13.5219 2.36872 13.2357 2.25019 12.9373 2.25019ZM12.9373 14.7354L9.29731 12.4608C9.20791 12.405 9.10461 12.3753 8.99919 12.3753C8.89376 12.3753 8.79046 12.405 8.70107 12.4608L5.06244 14.7354V3.37518H12.9373V14.7354Z" fill="#00E870"/>
</svg>
