<svg width="32" height="32" viewBox="0 0 32 32" fill="none" xmlns="http://www.w3.org/2000/svg">
<g filter="url(#filter0_d_6913_13286)">
<rect x="2" y="1" width="28" height="28" rx="4" fill="#1877F2"/>
<g clip-path="url(#clip0_6913_13286)">
<path d="M23.6365 15.0001C23.6365 10.7827 20.2176 7.36377 16.0001 7.36377C11.7827 7.36377 8.36377 10.7827 8.36377 15.0001C8.36377 18.8116 11.1563 21.9709 14.807 22.5437V17.2075H12.868V15.0001H14.807V13.3177C14.807 11.4039 15.947 10.3467 17.6913 10.3467C18.5265 10.3467 19.4007 10.4959 19.4007 10.4959V12.3751H18.4378C17.4892 12.3751 17.1933 12.9638 17.1933 13.5683V15.0001H19.3112L18.9726 17.2075H17.1933V22.5437C20.844 21.9709 23.6365 18.8116 23.6365 15.0001Z" fill="white"/>
</g>
</g>
<defs>
<filter id="filter0_d_6913_13286" x="0" y="0" width="32" height="32" filterUnits="userSpaceOnUse" color-interpolation-filters="sRGB">
<feFlood flood-opacity="0" result="BackgroundImageFix"/>
<feColorMatrix in="SourceAlpha" type="matrix" values="0 0 0 0 0 0 0 0 0 0 0 0 0 0 0 0 0 0 127 0" result="hardAlpha"/>
<feOffset dy="1"/>
<feGaussianBlur stdDeviation="1"/>
<feColorMatrix type="matrix" values="0 0 0 0 0.0627451 0 0 0 0 0.0941176 0 0 0 0 0.156863 0 0 0 0.05 0"/>
<feBlend mode="normal" in2="BackgroundImageFix" result="effect1_dropShadow_6913_13286"/>
<feBlend mode="normal" in="SourceGraphic" in2="effect1_dropShadow_6913_13286" result="shape"/>
</filter>
<clipPath id="clip0_6913_13286">
<rect width="15.2727" height="15.2727" fill="white" transform="translate(8.36377 7.36377)"/>
</clipPath>
</defs>
</svg>
