<svg width="28" height="28" viewBox="0 0 28 28" fill="none" xmlns="http://www.w3.org/2000/svg">
<rect width="28" height="28" rx="4" fill="#1275B1"/>
<path d="M9.81976 7.74517C9.81976 8.7516 8.94741 9.56748 7.87131 9.56748C6.7952 9.56748 5.92285 8.7516 5.92285 7.74517C5.92285 6.73873 6.7952 5.92285 7.87131 5.92285C8.94741 5.92285 9.81976 6.73873 9.81976 7.74517Z" fill="white"/>
<path d="M6.18931 10.907H9.52V20.9998H6.18931V10.907Z" fill="white"/>
<path d="M14.8824 10.907H11.5517V20.9998H14.8824C14.8824 20.9998 14.8824 17.8224 14.8824 15.8358C14.8824 14.6434 15.2896 13.4457 16.9141 13.4457C18.7501 13.4457 18.739 15.0062 18.7305 16.2151C18.7193 17.7953 18.746 19.4079 18.746 20.9998H22.0767V15.673C22.0485 12.2717 21.1622 10.7045 18.2464 10.7045C16.5148 10.7045 15.4415 11.4906 14.8824 12.2018V10.907Z" fill="white"/>
</svg>
