<svg width="16" height="16" viewBox="0 0 16 16" fill="none" xmlns="http://www.w3.org/2000/svg">
<g clip-path="url(#clip0_0_156)">
<path d="M15.9998 7.99988C15.9998 3.58167 12.4181 0 7.99988 0C3.58167 0 0 3.58167 0 7.99988C0 11.9928 2.92543 15.3024 6.7499 15.9026V10.3124H4.71868V7.99988H6.7499V6.23741C6.7499 4.23244 7.94426 3.12495 9.77158 3.12495C10.6466 3.12495 11.5623 3.2812 11.5623 3.2812V5.24992H10.5536C9.55986 5.24992 9.24987 5.86663 9.24987 6.49991V7.99988H11.4686L11.1139 10.3124H9.24987V15.9026C13.0743 15.3024 15.9998 11.9928 15.9998 7.99988Z" fill="white"/>
</g>
<defs>
<clipPath id="clip0_0_156">
<rect width="15.2727" height="15.2727" fill="white" transform="scale(1.0476)"/>
</clipPath>
</defs>
</svg>
