<svg width="20" height="20" viewBox="0 0 20 20" fill="none" xmlns="http://www.w3.org/2000/svg">
<path d="M17.5 10C17.5 10.1658 17.4342 10.3247 17.3169 10.442C17.1997 10.5592 17.0408 10.625 16.875 10.625H4.6336L9.19219 15.1828C9.25026 15.2409 9.29632 15.3098 9.32775 15.3857C9.35918 15.4616 9.37535 15.5429 9.37535 15.625C9.37535 15.7071 9.35918 15.7885 9.32775 15.8643C9.29632 15.9402 9.25026 16.0091 9.19219 16.0672C9.13412 16.1253 9.06518 16.1713 8.98931 16.2028C8.91344 16.2342 8.83213 16.2504 8.75 16.2504C8.66788 16.2504 8.58656 16.2342 8.51069 16.2028C8.43482 16.1713 8.36588 16.1253 8.30782 16.0672L2.68282 10.4422C2.62471 10.3842 2.57861 10.3152 2.54715 10.2393C2.5157 10.1635 2.49951 10.0821 2.49951 10C2.49951 9.91788 2.5157 9.83655 2.54715 9.76067C2.57861 9.6848 2.62471 9.61587 2.68282 9.55782L8.30782 3.93282C8.42509 3.81555 8.58415 3.74966 8.75 3.74966C8.91586 3.74966 9.07492 3.81555 9.19219 3.93282C9.30947 4.0501 9.37535 4.20916 9.37535 4.37501C9.37535 4.54086 9.30947 4.69992 9.19219 4.8172L4.6336 9.37501H16.875C17.0408 9.37501 17.1997 9.44086 17.3169 9.55807C17.4342 9.67528 17.5 9.83425 17.5 10Z" fill="#101828"/>
</svg>
