<svg width="20" height="20" viewBox="0 0 20 20" fill="none" xmlns="http://www.w3.org/2000/svg">
<path d="M13.1248 17.5C13.1248 17.6658 13.0589 17.8247 12.9417 17.9419C12.8245 18.0592 12.6655 18.125 12.4998 18.125H7.49978C7.33402 18.125 7.17505 18.0592 7.05784 17.9419C6.94063 17.8247 6.87478 17.6658 6.87478 17.5C6.87478 17.3342 6.94063 17.1753 7.05784 17.0581C7.17505 16.9408 7.33402 16.875 7.49978 16.875H12.4998C12.6655 16.875 12.8245 16.9408 12.9417 17.0581C13.0589 17.1753 13.1248 17.3342 13.1248 17.5ZM17.3318 15C17.2234 15.191 17.0659 15.3497 16.8757 15.4595C16.6855 15.5694 16.4694 15.6265 16.2498 15.625H3.74978C3.53004 15.6247 3.31427 15.5665 3.1242 15.4562C2.93413 15.346 2.77649 15.1875 2.66716 14.9969C2.55783 14.8063 2.50068 14.5903 2.50147 14.3705C2.50226 14.1508 2.56096 13.9351 2.67165 13.7453C3.10525 12.9984 3.74978 10.8859 3.74978 8.125C3.74978 6.4674 4.40826 4.87769 5.58036 3.70558C6.75246 2.53348 8.34218 1.875 9.99978 1.875C11.6574 1.875 13.2471 2.53348 14.4192 3.70558C15.5913 4.87769 16.2498 6.4674 16.2498 8.125C16.2498 10.8852 16.8951 12.9984 17.3287 13.7453C17.4405 13.9354 17.4996 14.1518 17.5 14.3723C17.5004 14.5929 17.4421 14.8095 17.331 15H17.3318ZM16.2498 14.375C15.6459 13.3383 14.9998 10.9414 14.9998 8.125C14.9998 6.79892 14.473 5.52715 13.5353 4.58947C12.5976 3.65178 11.3259 3.125 9.99978 3.125C8.6737 3.125 7.40193 3.65178 6.46424 4.58947C5.52656 5.52715 4.99978 6.79892 4.99978 8.125C4.99978 10.9422 4.3529 13.3391 3.74978 14.375H16.2498Z" fill="white"/>
</svg>
