<svg width="32" height="32" viewBox="0 0 32 32" fill="none" xmlns="http://www.w3.org/2000/svg">
<path fill-rule="evenodd" clip-rule="evenodd" d="M16 32C24.8366 32 32 24.8366 32 16C32 7.16344 24.8366 0 16 0C7.16344 0 0 7.16344 0 16C0 24.8366 7.16344 32 16 32ZM24.0296 16.7064C24.2168 16.5191 24.322 16.2651 24.322 16.0003C24.322 15.7354 24.2168 15.4814 24.0296 15.2941C23.8423 15.1069 23.5883 15.0016 23.3234 15.0016H16.9987V8.67691C16.9987 8.41206 16.8935 8.15805 16.7062 7.97077C16.5189 7.78349 16.2649 7.67827 16 7.67827C15.7352 7.67827 15.4812 7.78349 15.2939 7.97077C15.1066 8.15805 15.0014 8.41206 15.0014 8.67691V15.0016H8.67667C8.41181 15.0016 8.1578 15.1069 7.97052 15.2941C7.78324 15.4814 7.67803 15.7354 7.67803 16.0003C7.67803 16.2651 7.78324 16.5191 7.97052 16.7064C8.1578 16.8937 8.41181 16.9989 8.67667 16.9989H15.0014V23.3237C15.0014 23.5885 15.1066 23.8425 15.2939 24.0298C15.4812 24.2171 15.7352 24.3223 16 24.3223C16.2649 24.3223 16.5189 24.2171 16.7062 24.0298C16.8935 23.8425 16.9987 23.5885 16.9987 23.3237V16.9989H23.3234C23.5883 16.9989 23.8423 16.8937 24.0296 16.7064Z" fill="#00E870"/>
</svg>
