<svg width="16" height="16" viewBox="0 0 16 16" fill="none" xmlns="http://www.w3.org/2000/svg">
<path d="M8.00019 4.50003C8.1328 4.50003 8.25997 4.55271 8.35374 4.64648C8.44751 4.74025 8.50019 4.86742 8.50019 5.00003V8.50003C8.50019 8.63264 8.44751 8.75982 8.35374 8.85359C8.25997 8.94735 8.1328 9.00003 8.00019 9.00003C7.86758 9.00003 7.7404 8.94735 7.64663 8.85359C7.55287 8.75982 7.50019 8.63264 7.50019 8.50003V5.00003C7.50019 4.86742 7.55287 4.74025 7.64663 4.64648C7.7404 4.55271 7.86758 4.50003 8.00019 4.50003ZM7.25019 10.75C7.25019 10.8984 7.29417 11.0434 7.37659 11.1667C7.459 11.29 7.57613 11.3862 7.71317 11.4429C7.85022 11.4997 8.00102 11.5146 8.1465 11.4856C8.29199 11.4567 8.42563 11.3853 8.53052 11.2804C8.63541 11.1755 8.70684 11.0418 8.73578 10.8963C8.76472 10.7509 8.74986 10.6001 8.6931 10.463C8.63633 10.326 8.5402 10.2088 8.41686 10.1264C8.29353 10.044 8.14852 10 8.00019 10C7.80128 10 7.61051 10.0791 7.46986 10.2197C7.32921 10.3604 7.25019 10.5511 7.25019 10.75ZM15.0002 8.00003C15.0006 8.131 14.9749 8.26075 14.9249 8.38176C14.8748 8.50277 14.8012 8.61265 14.7083 8.70503L8.70519 14.7088C8.51782 14.895 8.26437 14.9996 8.00019 14.9996C7.736 14.9996 7.48255 14.895 7.29519 14.7088L1.29519 8.70503C1.10894 8.51767 1.00439 8.26422 1.00439 8.00003C1.00439 7.73585 1.10894 7.48239 1.29519 7.29503L7.29831 1.29128C7.48567 1.10503 7.73913 1.00049 8.00331 1.00049C8.2675 1.00049 8.52095 1.10503 8.70831 1.29128L14.7114 7.29503C14.8037 7.38767 14.8767 7.49766 14.9263 7.61866C14.9759 7.73966 15.001 7.86928 15.0002 8.00003ZM14.0002 8.00003L8.00019 2.00003L2.00019 8.00003L8.00019 14L14.0002 8.00003Z" fill="#F04438"/>
</svg>
