<svg width="17" height="16" viewBox="0 0 17 16" fill="none" xmlns="http://www.w3.org/2000/svg">
<path d="M4.10104 1.91777C4.10104 2.97693 3.18299 3.83555 2.05052 3.83555C0.918049 3.83555 0 2.97693 0 1.91777C0 0.858616 0.918049 0 2.05052 0C3.18299 0 4.10104 0.858616 4.10104 1.91777Z" fill="white"/>
<path d="M0.280413 5.24519H3.78558V15.8667H0.280413V5.24519Z" fill="white"/>
<path d="M9.42889 5.24519H5.92372V15.8667H9.42889C9.42889 15.8667 9.42889 12.5229 9.42889 10.4322C9.42889 9.17732 9.85737 7.91696 11.567 7.91696C13.4992 7.91696 13.4876 9.55916 13.4785 10.8314C13.4668 12.4944 13.4949 14.1915 13.4949 15.8667H17V10.2609C16.9704 6.68144 16.0376 5.03211 12.9691 5.03211C11.1468 5.03211 10.0172 5.85941 9.42889 6.60791V5.24519Z" fill="white"/>
</svg>
